<svg width="15" height="9" viewBox="0 0 15 9" fill="none" xmlns="http://www.w3.org/2000/svg">
<path d="M7.18704 8.12454C7.0639 8.12471 6.94195 8.10053 6.82818 8.05341C6.71442 8.00629 6.61108 7.93715 6.52413 7.84996L0.274125 1.59996C0.098512 1.4241 -8.70529e-05 1.18571 5.76714e-08 0.937179C8.71683e-05 0.68865 0.0988534 0.450326 0.27459 0.27459C0.450326 0.0988534 0.688651 8.71683e-05 0.937179 5.76716e-08C1.18571 -8.70529e-05 1.4241 0.0985117 1.59996 0.274125L7.18704 5.86121L12.7741 0.274125C12.95 0.0985117 13.1884 -8.70529e-05 13.4369 5.76716e-08C13.6854 8.71683e-05 13.9238 0.0988534 14.0995 0.27459C14.2752 0.450326 14.374 0.68865 14.3741 0.937179C14.3742 1.18571 14.2756 1.4241 14.1 1.59996L7.84996 7.84996C7.763 7.93715 7.65967 8.00629 7.54591 8.05341C7.43214 8.10053 7.31018 8.12471 7.18704 8.12454Z" fill="#212121"/>
</svg>
